<?xml version="1.0" standalone="no"?>
<!DOCTYPE svg PUBLIC "-//W3C//DTD SVG 20010904//EN"
 "http://www.w3.org/TR/2001/REC-SVG-20010904/DTD/svg10.dtd">
<svg version="1.0" xmlns="http://www.w3.org/2000/svg"
 width="352.000000pt" height="352.000000pt" viewBox="0 0 352.000000 352.000000"
 preserveAspectRatio="xMidYMid meet">
<metadata>
Created by potrace 1.11, written by Peter Selinger 2001-2013
</metadata>
<g transform="translate(0.000000,352.000000) scale(0.100000,-0.100000)"
fill="#000000" stroke="none">
<path d="M1658 3494 c-2 -1 -30 -5 -63 -7 -143 -13 -350 -62 -450 -107 -83
-37 -224 -106 -245 -120 -14 -9 -45 -30 -70 -46 -52 -34 -55 -36 -140 -105
-129 -107 -233 -222 -337 -376 -39 -59 -69 -111 -67 -115 3 -4 1 -8 -4 -8 -10
0 -88 -160 -84 -172 1 -5 -3 -8 -9 -8 -6 0 -9 -6 -6 -13 3 -7 -1 -21 -9 -31
-7 -11 -11 -23 -8 -27 3 -5 0 -9 -6 -9 -6 0 -9 -4 -5 -9 3 -5 1 -12 -5 -16 -6
-4 -8 -10 -5 -15 3 -5 1 -19 -5 -30 -6 -12 -13 -29 -15 -38 -2 -9 -10 -46 -19
-82 -24 -103 -29 -132 -30 -182 -1 -27 -4 -48 -8 -48 -8 0 -3 -375 6 -410 4
-14 9 -43 12 -64 3 -22 7 -43 9 -47 3 -4 7 -24 10 -45 3 -22 9 -46 12 -54 4
-8 7 -17 7 -20 9 -41 31 -107 37 -114 5 -6 9 -16 9 -23 0 -18 89 -213 123
-268 31 -51 110 -171 116 -175 4 -3 14 -17 24 -32 9 -15 62 -74 118 -131 247
-256 554 -423 904 -492 117 -23 346 -34 445 -21 25 4 66 8 92 11 81 7 265 55
370 96 161 63 310 148 443 253 61 48 265 251 265 264 0 5 9 17 20 27 23 21
130 180 130 194 0 5 3 11 8 13 4 1 27 44 50 93 24 50 50 102 58 117 8 16 13
28 10 28 -3 0 3 20 14 45 11 25 20 47 20 50 0 3 0 6 1 8 0 1 2 9 4 17 2 8 11
42 20 75 21 82 25 101 43 220 11 78 5 480 -8 480 -1 0 -4 14 -6 30 -9 80 -12
93 -17 102 -3 5 -8 23 -11 39 -3 17 -17 64 -31 105 -14 41 -27 79 -29 84 -42
130 -182 370 -291 501 -230 277 -563 484 -905 563 -79 18 -108 24 -200 37 -37
6 -288 13 -292 8z"/>
</g>
</svg>
